<mxfile host="app.diagrams.net" modified="2024-03-04T17:10:41.501Z" agent="Mozilla/5.0 (Windows NT 10.0; Win64; x64) AppleWebKit/537.36 (KHTML, like Gecko) Chrome/122.0.0.0 Safari/537.36" etag="hjRib_JKN82akvZb0CGL" version="24.0.1" type="device">
  <diagram id="C5RBs43oDa-KdzZeNtuy" name="Page-1">
    <mxGraphModel dx="746" dy="1985" grid="1" gridSize="10" guides="1" tooltips="1" connect="1" arrows="1" fold="1" page="1" pageScale="1" pageWidth="827" pageHeight="1169" math="0" shadow="0">
      <root>
        <mxCell id="WIyWlLk6GJQsqaUBKTNV-0" />
        <mxCell id="WIyWlLk6GJQsqaUBKTNV-1" parent="WIyWlLk6GJQsqaUBKTNV-0" />
        <mxCell id="qB_hexs2uHH2XF-ffdjJ-40" value="CLIENTE" style="rounded=1;arcSize=10;whiteSpace=wrap;html=1;align=center;" vertex="1" parent="WIyWlLk6GJQsqaUBKTNV-1">
          <mxGeometry x="480" y="-200" width="100" height="40" as="geometry" />
        </mxCell>
        <mxCell id="qB_hexs2uHH2XF-ffdjJ-43" value="LIBRO" style="rounded=1;arcSize=10;whiteSpace=wrap;html=1;align=center;" vertex="1" parent="WIyWlLk6GJQsqaUBKTNV-1">
          <mxGeometry x="200" y="40" width="100" height="40" as="geometry" />
        </mxCell>
        <mxCell id="qB_hexs2uHH2XF-ffdjJ-44" value="AUTOR" style="rounded=1;arcSize=10;whiteSpace=wrap;html=1;align=center;" vertex="1" parent="WIyWlLk6GJQsqaUBKTNV-1">
          <mxGeometry x="200" y="160" width="100" height="40" as="geometry" />
        </mxCell>
        <mxCell id="qB_hexs2uHH2XF-ffdjJ-45" value="VENTA" style="rounded=1;arcSize=10;whiteSpace=wrap;html=1;align=center;" vertex="1" parent="WIyWlLk6GJQsqaUBKTNV-1">
          <mxGeometry x="290" y="-200" width="100" height="40" as="geometry" />
        </mxCell>
        <mxCell id="qB_hexs2uHH2XF-ffdjJ-46" value="PROVEEDOR" style="rounded=1;arcSize=10;whiteSpace=wrap;html=1;align=center;" vertex="1" parent="WIyWlLk6GJQsqaUBKTNV-1">
          <mxGeometry x="40" y="-160" width="100" height="40" as="geometry" />
        </mxCell>
        <mxCell id="qB_hexs2uHH2XF-ffdjJ-47" value="EDITORIAL" style="rounded=1;arcSize=10;whiteSpace=wrap;html=1;align=center;" vertex="1" parent="WIyWlLk6GJQsqaUBKTNV-1">
          <mxGeometry x="40" y="40" width="100" height="40" as="geometry" />
        </mxCell>
        <mxCell id="qB_hexs2uHH2XF-ffdjJ-48" value="RESEÃ‘A" style="rounded=1;arcSize=10;whiteSpace=wrap;html=1;align=center;" vertex="1" parent="WIyWlLk6GJQsqaUBKTNV-1">
          <mxGeometry x="360" y="-80" width="100" height="40" as="geometry" />
        </mxCell>
        <mxCell id="qB_hexs2uHH2XF-ffdjJ-49" value="EMPLEADOS" style="rounded=1;arcSize=10;whiteSpace=wrap;html=1;align=center;" vertex="1" parent="WIyWlLk6GJQsqaUBKTNV-1">
          <mxGeometry x="290" y="-320" width="100" height="40" as="geometry" />
        </mxCell>
        <mxCell id="qB_hexs2uHH2XF-ffdjJ-55" value="" style="fontSize=12;html=1;endArrow=ERoneToMany;rounded=0;exitX=0;exitY=0.5;exitDx=0;exitDy=0;" edge="1" parent="WIyWlLk6GJQsqaUBKTNV-1" source="qB_hexs2uHH2XF-ffdjJ-43">
          <mxGeometry width="100" height="100" relative="1" as="geometry">
            <mxPoint x="300" y="-20" as="sourcePoint" />
            <mxPoint x="140" y="60" as="targetPoint" />
          </mxGeometry>
        </mxCell>
        <mxCell id="qB_hexs2uHH2XF-ffdjJ-56" value="es publicado" style="text;html=1;align=center;verticalAlign=middle;whiteSpace=wrap;rounded=0;" vertex="1" parent="WIyWlLk6GJQsqaUBKTNV-1">
          <mxGeometry x="130" y="90" width="90" height="30" as="geometry" />
        </mxCell>
        <mxCell id="qB_hexs2uHH2XF-ffdjJ-59" value="escribe" style="text;html=1;align=center;verticalAlign=middle;whiteSpace=wrap;rounded=0;" vertex="1" parent="WIyWlLk6GJQsqaUBKTNV-1">
          <mxGeometry x="260" y="50" width="40" height="150" as="geometry" />
        </mxCell>
        <mxCell id="qB_hexs2uHH2XF-ffdjJ-61" value="compra" style="text;html=1;align=center;verticalAlign=middle;whiteSpace=wrap;rounded=0;" vertex="1" parent="WIyWlLk6GJQsqaUBKTNV-1">
          <mxGeometry x="410" y="-210" width="60" height="30" as="geometry" />
        </mxCell>
        <mxCell id="qB_hexs2uHH2XF-ffdjJ-67" value="" style="fontSize=12;html=1;endArrow=ERmany;startArrow=ERmany;rounded=0;exitX=0.5;exitY=0;exitDx=0;exitDy=0;entryX=0.5;entryY=1;entryDx=0;entryDy=0;" edge="1" parent="WIyWlLk6GJQsqaUBKTNV-1" source="qB_hexs2uHH2XF-ffdjJ-44" target="qB_hexs2uHH2XF-ffdjJ-43">
          <mxGeometry width="100" height="100" relative="1" as="geometry">
            <mxPoint x="210" y="80" as="sourcePoint" />
            <mxPoint x="310" y="-20" as="targetPoint" />
          </mxGeometry>
        </mxCell>
        <mxCell id="qB_hexs2uHH2XF-ffdjJ-68" value="" style="edgeStyle=entityRelationEdgeStyle;fontSize=12;html=1;endArrow=ERoneToMany;rounded=0;exitX=0;exitY=0.5;exitDx=0;exitDy=0;entryX=1;entryY=0.5;entryDx=0;entryDy=0;" edge="1" parent="WIyWlLk6GJQsqaUBKTNV-1" source="qB_hexs2uHH2XF-ffdjJ-40" target="qB_hexs2uHH2XF-ffdjJ-45">
          <mxGeometry width="100" height="100" relative="1" as="geometry">
            <mxPoint x="390" y="-180" as="sourcePoint" />
            <mxPoint x="490" y="-280" as="targetPoint" />
          </mxGeometry>
        </mxCell>
        <mxCell id="qB_hexs2uHH2XF-ffdjJ-69" value="" style="edgeStyle=orthogonalEdgeStyle;fontSize=12;html=1;endArrow=ERmany;startArrow=ERmany;rounded=0;exitX=0.5;exitY=0;exitDx=0;exitDy=0;entryX=0.5;entryY=1;entryDx=0;entryDy=0;" edge="1" parent="WIyWlLk6GJQsqaUBKTNV-1" source="qB_hexs2uHH2XF-ffdjJ-43" target="qB_hexs2uHH2XF-ffdjJ-45">
          <mxGeometry width="100" height="100" relative="1" as="geometry">
            <mxPoint x="430" y="30" as="sourcePoint" />
            <mxPoint x="530" y="-70" as="targetPoint" />
            <Array as="points">
              <mxPoint x="250" y="-110" />
              <mxPoint x="340" y="-110" />
            </Array>
          </mxGeometry>
        </mxCell>
        <mxCell id="qB_hexs2uHH2XF-ffdjJ-70" value="" style="fontSize=12;html=1;endArrow=ERoneToMany;rounded=0;exitX=0.5;exitY=1;exitDx=0;exitDy=0;entryX=0.5;entryY=0;entryDx=0;entryDy=0;" edge="1" parent="WIyWlLk6GJQsqaUBKTNV-1" source="qB_hexs2uHH2XF-ffdjJ-49" target="qB_hexs2uHH2XF-ffdjJ-45">
          <mxGeometry width="100" height="100" relative="1" as="geometry">
            <mxPoint x="400" y="-260" as="sourcePoint" />
            <mxPoint x="340" y="-210" as="targetPoint" />
          </mxGeometry>
        </mxCell>
        <mxCell id="qB_hexs2uHH2XF-ffdjJ-72" value="" style="edgeStyle=orthogonalEdgeStyle;fontSize=12;html=1;endArrow=ERoneToMany;rounded=0;exitX=1;exitY=0.5;exitDx=0;exitDy=0;entryX=0.5;entryY=1;entryDx=0;entryDy=0;" edge="1" parent="WIyWlLk6GJQsqaUBKTNV-1" source="qB_hexs2uHH2XF-ffdjJ-48" target="qB_hexs2uHH2XF-ffdjJ-40">
          <mxGeometry width="100" height="100" relative="1" as="geometry">
            <mxPoint x="450" y="-30" as="sourcePoint" />
            <mxPoint x="550" y="-130" as="targetPoint" />
          </mxGeometry>
        </mxCell>
        <mxCell id="qB_hexs2uHH2XF-ffdjJ-73" value="" style="edgeStyle=entityRelationEdgeStyle;fontSize=12;html=1;endArrow=ERoneToMany;rounded=0;exitX=1;exitY=0;exitDx=0;exitDy=0;entryX=0;entryY=0.5;entryDx=0;entryDy=0;" edge="1" parent="WIyWlLk6GJQsqaUBKTNV-1" source="qB_hexs2uHH2XF-ffdjJ-43" target="qB_hexs2uHH2XF-ffdjJ-48">
          <mxGeometry width="100" height="100" relative="1" as="geometry">
            <mxPoint x="450" y="-30" as="sourcePoint" />
            <mxPoint x="420" y="-10" as="targetPoint" />
            <Array as="points">
              <mxPoint x="460" y="-40" />
            </Array>
          </mxGeometry>
        </mxCell>
        <mxCell id="qB_hexs2uHH2XF-ffdjJ-74" value="da" style="text;html=1;align=center;verticalAlign=middle;whiteSpace=wrap;rounded=0;" vertex="1" parent="WIyWlLk6GJQsqaUBKTNV-1">
          <mxGeometry x="470" y="-100" width="60" height="30" as="geometry" />
        </mxCell>
        <mxCell id="qB_hexs2uHH2XF-ffdjJ-75" value="realiza&amp;nbsp;" style="text;html=1;align=center;verticalAlign=middle;whiteSpace=wrap;rounded=0;" vertex="1" parent="WIyWlLk6GJQsqaUBKTNV-1">
          <mxGeometry x="340" y="-260" width="60" height="30" as="geometry" />
        </mxCell>
        <mxCell id="qB_hexs2uHH2XF-ffdjJ-76" value="" style="edgeStyle=entityRelationEdgeStyle;fontSize=12;html=1;endArrow=ERoneToMany;rounded=0;entryX=1;entryY=0.5;entryDx=0;entryDy=0;exitX=0;exitY=0;exitDx=0;exitDy=0;" edge="1" parent="WIyWlLk6GJQsqaUBKTNV-1" source="qB_hexs2uHH2XF-ffdjJ-43" target="qB_hexs2uHH2XF-ffdjJ-46">
          <mxGeometry width="100" height="100" relative="1" as="geometry">
            <mxPoint x="290" y="130" as="sourcePoint" />
            <mxPoint x="390" y="30" as="targetPoint" />
          </mxGeometry>
        </mxCell>
        <mxCell id="qB_hexs2uHH2XF-ffdjJ-77" value="" style="fontSize=12;html=1;endArrow=ERmany;startArrow=ERmany;rounded=0;entryX=0.5;entryY=1;entryDx=0;entryDy=0;exitX=0.5;exitY=0;exitDx=0;exitDy=0;" edge="1" parent="WIyWlLk6GJQsqaUBKTNV-1" source="qB_hexs2uHH2XF-ffdjJ-47" target="qB_hexs2uHH2XF-ffdjJ-46">
          <mxGeometry width="100" height="100" relative="1" as="geometry">
            <mxPoint x="290" y="130" as="sourcePoint" />
            <mxPoint x="390" y="30" as="targetPoint" />
          </mxGeometry>
        </mxCell>
      </root>
    </mxGraphModel>
  </diagram>
</mxfile>
